<svg width="17" height="17" viewBox="0 0 17 17" fill="none" xmlns="http://www.w3.org/2000/svg">
<path d="M14.0336 3.18102C13.0508 2.73003 12.0137 2.40847 10.9481 2.22439C10.9384 2.22263 10.9284 2.22396 10.9195 2.22819C10.9106 2.23242 10.9032 2.23934 10.8984 2.24797C10.7654 2.4846 10.6172 2.79365 10.5144 3.03702C9.36593 2.8626 8.19767 2.8626 7.04917 3.03702C6.93353 2.76702 6.80309 2.5036 6.65843 2.24797C6.65353 2.23965 6.64628 2.23297 6.63758 2.22878C6.62889 2.22458 6.61915 2.22305 6.60959 2.22439C5.52664 2.4105 4.49085 2.73723 3.52411 3.18102C3.51581 3.18443 3.50876 3.19031 3.5039 3.19786C1.53843 6.13428 0.999483 8.99913 1.2639 11.8269C1.26559 11.8412 1.27317 11.8539 1.28411 11.8623C2.42811 12.7098 3.7078 13.3568 5.06854 13.7755C5.07816 13.7787 5.08851 13.7787 5.09816 13.7757C5.10782 13.7727 5.1163 13.7667 5.12243 13.7587C5.4138 13.3604 5.67317 12.9402 5.89717 12.4989C5.90032 12.4928 5.90213 12.4861 5.90246 12.4792C5.90279 12.4723 5.90163 12.4655 5.89908 12.4591C5.89652 12.4527 5.89262 12.4469 5.88764 12.4422C5.88267 12.4374 5.87672 12.4338 5.87022 12.4315C5.46186 12.2753 5.06651 12.0869 4.6879 11.8682C4.68117 11.8641 4.67553 11.8584 4.67145 11.8517C4.66738 11.845 4.66499 11.8374 4.66449 11.8295C4.664 11.8216 4.66541 11.8138 4.6686 11.8066C4.6718 11.7994 4.67669 11.7931 4.68285 11.7882C4.76201 11.7284 4.84201 11.6661 4.9178 11.6038C4.92453 11.5982 4.93265 11.5947 4.94127 11.5935C4.94989 11.5923 4.95867 11.5935 4.96664 11.597C7.44748 12.7297 10.133 12.7297 12.5843 11.597C12.5924 11.593 12.6015 11.5914 12.6105 11.5924C12.6194 11.5935 12.6279 11.5971 12.6349 11.6029C12.7106 11.6661 12.7898 11.7284 12.8698 11.7882C12.876 11.793 12.8809 11.7993 12.8842 11.8064C12.8875 11.8136 12.889 11.8214 12.8886 11.8293C12.8881 11.8371 12.8858 11.8448 12.8818 11.8515C12.8778 11.8583 12.8723 11.864 12.8656 11.8682C12.4878 12.0889 12.092 12.2774 11.6824 12.4315C11.6761 12.434 11.6703 12.4377 11.6655 12.4425C11.6607 12.4474 11.657 12.4532 11.6546 12.4595C11.6522 12.4659 11.6512 12.4727 11.6517 12.4795C11.6521 12.4863 11.654 12.4929 11.6572 12.4989C11.8845 12.9393 12.1439 13.3595 12.4302 13.7579C12.442 13.7747 12.4639 13.7814 12.4833 13.7755C13.8467 13.3582 15.1288 12.7112 16.2744 11.8623C16.2799 11.8582 16.2844 11.853 16.2878 11.8471C16.2911 11.8411 16.2932 11.8345 16.2938 11.8278C16.6104 8.55786 15.765 5.71744 14.0538 3.20039C14.0495 3.19196 14.0424 3.18453 14.0336 3.18102ZM6.26685 10.104C5.5199 10.104 4.90433 9.4185 4.90433 8.57639C4.90433 7.73428 5.50811 7.04881 6.26685 7.04881C7.03148 7.04881 7.64117 7.74018 7.62938 8.57639C7.62938 9.4185 7.02559 10.104 6.26685 10.104ZM11.3035 10.104C10.5565 10.104 9.94096 9.4185 9.94096 8.57639C9.94096 7.73428 10.5447 7.04881 11.3035 7.04881C12.0681 7.04881 12.6778 7.74018 12.666 8.57639C12.666 9.4185 12.0681 10.104 11.3035 10.104Z" fill="#94A7C6"/>
</svg>
