<svg width="17" height="17" viewBox="0 0 17 17" fill="none" xmlns="http://www.w3.org/2000/svg">
<path fill-rule="evenodd" clip-rule="evenodd" d="M0.78125 1.21292C0.78125 0.612923 1.31458 0.0795898 1.98125 0.0795898H15.6479C16.3146 0.0795898 16.8479 0.612923 16.8479 1.21292V14.9463C16.8479 15.5463 16.3146 16.0796 15.6479 16.0796H1.98125C1.31458 16.0796 0.78125 15.5463 0.78125 14.9463V1.21292ZM5.71458 13.4796V6.27959H3.31458V13.4796H5.71458ZM4.51458 5.27959C5.38125 5.27959 5.84792 4.74626 5.84792 4.01292C5.84792 3.27959 5.31458 2.74626 4.51458 2.74626C3.71458 2.74626 3.18125 3.27959 3.18125 4.01292C3.18125 4.67959 3.71458 5.27959 4.51458 5.27959ZM9.44792 13.4796H7.04792V6.27959H9.44792V7.27959C9.78125 6.74626 10.3146 6.07959 11.5813 6.07959C13.1813 6.07959 14.3146 7.07959 14.3146 9.34626V13.4796H11.9146V9.61292C11.9146 8.61292 11.5813 8.01292 10.7146 8.01292C10.0479 8.01292 9.64792 8.47959 9.44792 8.87959V13.4796Z" fill="#94A7C6"/>
</svg>
