<svg width="17" height="17" viewBox="0 0 17 17" fill="none" xmlns="http://www.w3.org/2000/svg">
<path d="M16.7811 1.74617C16.7811 1.6795 16.7145 1.61284 16.7145 1.61284C16.6478 1.54617 16.6478 1.54617 16.5811 1.54617C16.3811 1.4795 16.1811 1.54617 15.9811 1.61284C15.9811 1.61284 1.98112 6.6795 1.18112 7.21284C0.91445 7.2795 0.847784 7.34617 0.781117 7.41284C0.647784 7.81284 1.04778 8.01284 1.04778 8.01284L4.64778 9.21284H4.84778C5.64778 8.6795 13.1145 4.01284 13.5145 3.81284C13.5811 3.81284 13.6478 3.81284 13.6478 3.8795C13.4478 4.4795 7.04778 10.2128 6.98112 10.2128L6.91445 10.2795V10.3462L6.58112 13.8795C6.58112 13.8795 6.44778 14.9462 7.51445 13.8795C8.31445 13.0795 9.04778 12.4795 9.44778 12.1462C10.7145 13.0128 12.0478 13.9462 12.5811 14.4795C12.6478 14.5462 12.7811 14.6795 12.9145 14.6795C13.0478 14.7462 13.1811 14.7462 13.3145 14.7462C13.5145 14.7462 13.6478 14.6795 13.7811 14.5462C13.9145 14.4128 13.9811 14.2795 14.0478 14.1462C14.0478 14.1462 16.5811 3.8795 16.7145 2.4795V2.14617C16.7811 1.94617 16.7811 1.8795 16.7811 1.74617Z" fill="#94A7C6"/>
</svg>
