<svg width="17" height="17" viewBox="0 0 17 17" fill="none" xmlns="http://www.w3.org/2000/svg">
<path d="M16.5813 4.87959C16.3813 3.61292 15.7812 2.67959 14.3813 2.47959C12.1813 2.07959 8.78125 2.07959 8.78125 2.07959C8.78125 2.07959 5.38125 2.07959 3.18125 2.47959C1.78125 2.67959 1.04792 3.61292 0.98125 4.87959C0.78125 6.14626 0.78125 8.07959 0.78125 8.07959C0.78125 8.07959 0.78125 10.0129 0.98125 11.2796C1.18125 12.5463 1.78125 13.4796 3.18125 13.6796C5.38125 14.0796 8.78125 14.0796 8.78125 14.0796C8.78125 14.0796 12.1813 14.0796 14.3813 13.6796C15.7812 13.4129 16.3813 12.6129 16.5813 11.2796C16.7813 9.94626 16.7812 8.07959 16.7812 8.07959C16.7812 8.07959 16.7813 6.14626 16.5813 4.87959ZM6.78125 11.0796V5.07959L11.7812 8.07959L6.78125 11.0796Z" fill="#94A7C6"/>
</svg>
